# File created by Blade
# Date/Time:  Tue Apr 07 21:36:59 2015
# Frame Rate: 120.000 fps
#------------------------------------------------------
:FULLY-SPECIFIED
:DEGREES
592
root -6.649133 43.111734 10.269206 195.355389 -103.767580 -177.910064
Spine -10.144773 -7.147437 -1.465834
Head -17.748753 -12.795315 -6.174898
LeftShoulder -6.137291 28.387798 31.091558
LeftArm 63.204322 -51.097582 -69.446437
LeftForeArm -3.506783 0.000000 14.896278
LeftHand 18.487861 0.000000 20.258105
LeftHandThumb1 -26.253704 0.000000 33.147579
RightShoulder 1.524947 23.367856 -37.556096
RightArm 19.574633 27.231701 51.573250
RightForeArm -1.337156 -0.000000 39.547716
RightHand 20.992775 -0.000000 -28.185288
RightHandThumb1 -24.326973 -0.000000 -32.862282
LeftUpLeg -17.562327 -11.504746 9.064222
LeftLeg 21.334880 -0.000000 -0.000000
LeftFoot 7.663002 13.084428 -32.229672
LeftToeBase -8.223778 -0.000000 0.000000
RightUpLeg -18.589546 -3.213227 2.606315
RightLeg 12.642865 -0.000000 -0.000000
RightFoot 22.427353 -20.108318 10.732569
RightToeBase 3.395257 -0.000000 -0.000000
593
root -6.502432 42.487996 10.279652 197.239861 -103.649356 -179.087092
Spine -9.988159 -6.764623 -0.966461
Head -14.744769 -12.870321 -6.526897
LeftShoulder -5.933614 28.597282 30.851630
LeftArm 63.582857 -49.065889 -70.390960
LeftForeArm -2.832811 -0.000000 15.952472
LeftHand 18.698888 -0.000000 20.624899
LeftHandThumb1 -26.253704 0.000000 33.147579
RightShoulder 2.126962 23.014943 -36.973262
RightArm 19.950352 26.098221 53.184182
RightForeArm -1.653815 -0.000000 39.983629
RightHand 21.227877 0.000000 -30.164004
RightHandThumb1 -24.326973 -0.000000 -32.862282
LeftUpLeg -18.540432 -10.307453 8.862930
LeftLeg 15.553728 -0.000000 -0.000000
LeftFoot 8.629908 15.458873 -33.025526
LeftToeBase -5.936736 -0.000000 0.000000
RightUpLeg -19.796077 -3.689246 3.095717
RightLeg 7.909064 -0.000000 -0.000000
RightFoot 23.649465 -20.690819 10.668767
RightToeBase 2.572521 -0.000000 -0.000000
594
root -6.384238 41.836055 10.294121 199.131152 -103.486414 -180.149384
Spine -10.076397 -6.431943 -0.510785
Head -11.981776 -12.841301 -6.791719
LeftShoulder -6.037392 28.686968 30.308764
LeftArm 63.421149 -46.885896 -70.687799
LeftForeArm -2.406011 -0.000000 17.091226
LeftHand 19.059644 -0.000000 21.065913
LeftHandThumb1 -26.253704 0.000000 33.147579
RightShoulder 2.753898 22.404195 -36.316047
RightArm 20.187685 25.422943 54.990166
RightForeArm -2.136589 -0.000000 40.768339
RightHand 20.995407 -0.000000 -29.602746
RightHandThumb1 -24.326973 -0.000000 -32.862282
LeftUpLeg -19.660132 -8.037028 8.194816
LeftLeg 10.548321 -0.000000 -0.000000
LeftFoot 9.591263 16.401817 -32.768214
LeftToeBase -4.895230 -0.000000 0.000000
RightUpLeg -21.118624 -4.392180 3.716133
RightLeg 3.699192 -0.000000 -0.000000
RightFoot 25.293395 -20.939233 10.118319
RightToeBase 2.366650 -0.000000 -0.000000
595
root -6.292932 41.155073 10.321795 200.729751 -103.287943 -180.889450
Spine -10.262706 -6.104291 -0.164977
Head -9.432410 -12.850531 -6.886094
LeftShoulder -6.454394 29.063327 29.486629
LeftArm 63.842673 -44.711147 -71.406669
LeftForeArm -2.170970 -0.000000 18.125111
LeftHand 19.106565 -0.000000 22.084106
LeftHandThumb1 -26.253704 0.000000 33.147579
RightShoulder 3.187104 21.715142 -35.595853
RightArm 20.229761 24.671200 56.711817
RightForeArm -2.377920 -0.000000 41.622628
RightHand 20.956451 -0.000000 -29.407376
RightHandThumb1 -24.326973 -0.000000 -32.862282
LeftUpLeg -20.884518 -4.915582 6.933464
LeftLeg 6.340077 -0.000000 -0.000000
LeftFoot 11.090212 15.650290 -31.795571
LeftToeBase -5.913276 -0.000000 0.000000
RightUpLeg -22.597249 -5.609356 4.561068
RightLeg 0.343354 -0.000000 -0.000000
RightFoot 26.610692 -20.648790 9.698309
RightToeBase 1.449823 -0.000000 -0.000000
596
root -6.215885 40.442935 10.352297 202.360001 -103.100318 -181.661087
Spine -10.461956 -5.790609 0.129780
Head -7.193159 -12.895802 -6.812073
LeftShoulder -6.997386 29.377516 28.641427
LeftArm 64.162419 -42.625803 -72.341361
LeftForeArm -1.588016 0.000000 19.233083
LeftHand 19.076430 -0.000000 22.889070
LeftHandThumb1 -26.253704 0.000000 33.147579
RightShoulder 3.426719 20.983395 -34.752799
RightArm 20.123832 23.785030 58.274949
RightForeArm -3.201581 -0.000000 42.429871
RightHand 19.631965 -0.000000 -34.908858
RightHandThumb1 -24.326973 -0.000000 -32.862282
LeftUpLeg -22.360877 -1.584070 5.338347
LeftLeg 3.015465 -0.000000 -0.000000
LeftFoot 13.336063 14.154842 -31.173526
LeftToeBase -7.688714 -0.000000 0.000000
RightUpLeg -24.322306 -7.183367 5.716469
RightLeg -1.907647 -0.000000 0.000000
RightFoot 27.286320 -20.117963 10.117294
RightToeBase -0.471017 -0.000000 0.000000
597
root -6.136488 39.704093 10.387542 203.768142 -102.927519 -182.226746
Spine -10.582369 -5.499931 0.346411
Head -5.314122 -12.947513 -6.611045
LeftShoulder -7.550117 29.690361 27.800937
LeftArm 64.323668 -40.745569 -73.458771
LeftForeArm -0.902490 -0.000000 20.293319
LeftHand 19.020307 -0.000000 23.624390
LeftHandThumb1 -26.253704 0.000000 33.147579
RightShoulder 3.481734 20.177000 -33.789387
RightArm 20.089969 23.472916 59.834936
RightForeArm -3.023303 -0.000000 43.032980
RightHand 19.993417 -0.000000 -34.642360
RightHandThumb1 -24.326973 -0.000000 -32.862282
LeftUpLeg -24.152128 1.244586 3.601765
LeftLeg 0.842282 -0.000000 -0.000000
LeftFoot 15.547165 12.611770 -30.730943
LeftToeBase -8.425597 -0.000000 0.000000
RightUpLeg -26.319488 -8.697703 6.918342
RightLeg -2.910661 -0.000000 0.000000
RightFoot 27.643170 -19.730728 11.025191
RightToeBase -2.877002 -0.000000 0.000000
598
root -6.052786 38.936028 10.425843 204.824795 -102.800330 -182.467855
Spine -10.610358 -5.215352 0.486881
Head -3.801122 -12.950852 -6.404258
LeftShoulder -8.026068 29.890709 26.952770
LeftArm 64.113736 -39.114937 -74.388871
LeftForeArm -0.288312 -0.000000 21.125168
LeftHand 19.691605 -0.000000 23.460948
LeftHandThumb1 -26.253704 0.000000 33.147579
RightShoulder 3.310118 19.198577 -32.797928
RightArm 20.059238 23.327255 61.106131
RightForeArm -2.634434 -0.000000 43.449870
RightHand 20.241391 -0.000000 -29.181732
RightHandThumb1 -24.326973 -0.000000 -32.862282
LeftUpLeg -26.125640 3.022759 2.035781
LeftLeg -0.238551 -0.000000 0.000000
LeftFoot 17.193752 11.442535 -30.067094
LeftToeBase -9.867216 -0.000000 0.000000
RightUpLeg -28.410368 -9.562414 7.768789
RightLeg -2.807967 -0.000000 0.000000
RightFoot 27.975079 -19.541727 11.500832
RightToeBase -4.090461 -0.000000 0.000000
599
root -5.983531 38.133378 10.466640 205.786257 -102.766741 -182.798071
Spine -10.445760 -4.957418 0.673317
Head -2.532660 -12.965120 -6.237292
LeftShoulder -8.546998 30.361009 26.018743
LeftArm 64.099491 -37.606175 -75.393685
LeftForeArm 0.407940 -0.000000 21.726388
LeftHand 19.343234 -0.000000 23.401552
LeftHandThumb1 -26.253704 0.000000 33.147579
RightShoulder 3.006140 18.016537 -31.857854
RightArm 19.896249 22.900176 61.967764
RightForeArm -2.670190 -0.000000 43.741312
RightHand 18.611234 -0.000000 -31.495045
RightHandThumb1 -24.326973 -0.000000 -32.862282
LeftUpLeg -27.970818 3.619095 0.974657
LeftLeg -0.415977 -0.000000 0.000000
LeftFoot 18.295427 10.921397 -29.225810
LeftToeBase -11.657668 -0.000000 0.000000
RightUpLeg -30.374206 -9.893764 8.308967
RightLeg -1.611095 -0.000000 0.000000
RightFoot 28.313532 -19.066283 11.068411
RightToeBase -4.067470 -0.000000 0.000000
